<?xml version="1.0" encoding="utf-8"?>
<!-- Generator: Adobe Illustrator 23.0.2, SVG Export Plug-In . SVG Version: 6.00 Build 0)  -->
<svg version="1.1" id="Layer_1" xmlns="http://www.w3.org/2000/svg" xmlns:xlink="http://www.w3.org/1999/xlink" x="0px" y="0px"
	 viewBox="0 0 960 688" style="enable-background:new 0 0 960 688;" xml:space="preserve">
<style type="text/css">
	.st0{clip-path:url(#SVGID_2_);}
	.st1{opacity:0.25;fill:#D58655;enable-background:new    ;}
	.st2{opacity:0.4;fill:#FFFFFF;enable-background:new    ;}
	.st3{opacity:0.1;fill:#242122;enable-background:new    ;}
	.st4{fill:url(#SVGID_3_);}
	.st5{fill:#D58655;}
	.st6{opacity:0.2;fill:#F5F5F5;enable-background:new    ;}
	.st7{opacity:0.25;fill:#040006;enable-background:new    ;}
	.st8{fill:#65627B;}
	.st9{fill:url(#SVGID_4_);}
	.st10{fill:url(#SVGID_5_);}
	.st11{fill:#4B4B55;}
	.st12{fill:#5D5B7A;}
	.st13{fill:#936063;}
	.st14{opacity:0.1;fill:#040006;enable-background:new    ;}
	.st15{fill:#E4B8C5;}
	.st16{fill:#CC9595;}
	.st17{fill:#CD6F7B;}
	.st18{opacity:0.05;fill:#040006;enable-background:new    ;}
	.st19{fill:#83585F;}
	.st20{opacity:0.5;fill:#FFFFFF;enable-background:new    ;}
	.st21{opacity:0.05;}
	.st22{fill:none;stroke:#525360;stroke-miterlimit:10;}
	.st23{fill:#A8A8A8;}
	.st24{opacity:0.2;fill:#040006;enable-background:new    ;}
	.st25{fill:none;stroke:#525360;stroke-width:2;stroke-miterlimit:10;}
</style>
<g>
	<defs>
		<rect id="SVGID_1_" y="-25" width="960" height="713"/>
	</defs>
	<clipPath id="SVGID_2_">
		<use xlink:href="#SVGID_1_"  style="overflow:visible;"/>
	</clipPath>
	<g class="st0">
		<path class="st1" d="M49.03,250.68v-63.57h38.04v63.57h45.05v-98.34h33.04V78.83h27.03V3.34h56.06v75.49h27.03v73.51h32.03V63.93
			h18.02v-44.7h11.01v44.7h64.07v282.11h49.05v-29.8h30.03v29.8h49.05v-95.36h88.09v-63.57h38.04v63.57h2v122.18h40.04v-71.52h48.05
			v71.52h40.04V152.34h31.03V78.83h114.12v73.51H960v388.4H784.81H656.68H528.54H400.4h-93.1H132.12H3.98V250.68H49.03z"/>
		<path class="st2" d="M898.93,175.19h42.04v23.84h-42.04V175.19z"/>
		<path class="st2" d="M846.88,199.03h-42.04v-23.84h42.04V199.03z"/>
		<path class="st2" d="M898.93,221.88h42.04v23.84h-42.04V221.88z"/>
		<path class="st2" d="M846.88,245.72h-42.04v-23.84h42.04V245.72z"/>
		<path class="st2" d="M898.93,268.56h42.04v23.84h-42.04V268.56z"/>
		<path class="st2" d="M846.88,292.4h-42.04v-23.84h42.04V292.4z"/>
		<path class="st2" d="M898.93,315.25h42.04v23.84h-42.04V315.25z"/>
		<path class="st2" d="M846.88,339.09h-42.04v-23.84h42.04V339.09z"/>
		<path class="st2" d="M898.93,361.94h42.04v23.84h-42.04V361.94z"/>
		<path class="st2" d="M846.88,385.78h-42.04v-23.84h42.04V385.78z"/>
		<path class="st2" d="M898.93,408.62h42.04v23.84h-42.04V408.62z"/>
		<path class="st2" d="M846.88,432.46h-42.04v-23.84h42.04V432.46z"/>
		<path class="st2" d="M898.93,455.31h42.04v23.84h-42.04V455.31z"/>
		<path class="st2" d="M846.88,479.15h-42.04v-23.84h42.04V479.15z"/>
		<path class="st2" d="M671.69,396.7h98.1v11.92h-98.1V396.7z"/>
		<path class="st2" d="M671.69,414.58h98.1v11.92h-98.1V414.58z"/>
		<path class="st2" d="M671.69,432.46h98.1v11.92h-98.1V432.46z"/>
		<path class="st2" d="M415.42,402.66h98.1v11.92h-98.1V402.66z"/>
		<path class="st2" d="M415.42,420.54h98.1v11.92h-98.1V420.54z"/>
		<path class="st2" d="M415.42,438.42h98.1v11.92h-98.1V438.42z"/>
		<path class="st2" d="M671.69,450.34h98.1v11.92h-98.1V450.34z"/>
		<path class="st2" d="M671.69,468.22h98.1v11.92h-98.1V468.22z"/>
		<path class="st2" d="M671.69,486.1h98.1v11.92h-98.1V486.1z"/>
		<path class="st2" d="M608.63,273.53h27.03v34.77h-27.03V273.53z"/>
		<path class="st2" d="M576.59,308.3h-27.03v-34.77h27.03V308.3z"/>
		<path class="st2" d="M608.63,329.16h27.03v34.77h-27.03V329.16z"/>
		<path class="st2" d="M576.59,363.92h-27.03v-34.77h27.03V363.92z"/>
		<path class="st2" d="M608.63,384.78h27.03v34.77h-27.03V384.78z"/>
		<path class="st2" d="M576.59,419.55h-27.03v-34.77h27.03V419.55z"/>
		<path class="st2" d="M608.63,440.41h27.03v34.77h-27.03V440.41z"/>
		<path class="st2" d="M576.59,475.18h-27.03v-34.77h27.03V475.18z"/>
		<path class="st2" d="M364.37,86.78h36.04v45.69h-36.04V86.78z"/>
		<path class="st2" d="M364.37,152.34h36.04v45.69h-36.04V152.34z"/>
		<path class="st2" d="M364.37,217.9h36.04v45.69h-36.04V217.9z"/>
		<path class="st2" d="M364.37,283.46h36.04v45.69h-36.04V283.46z"/>
		<path class="st2" d="M364.37,349.02h36.04v45.69h-36.04V349.02z"/>
		<path class="st2" d="M364.37,414.58h36.04v45.69h-36.04V414.58z"/>
		<path class="st2" d="M152.64,180.16h134.14v38.74H152.64V180.16z"/>
		<path class="st2" d="M152.14,263.6h134.14v38.74H152.14V263.6z"/>
		<path class="st2" d="M151.64,347.04h134.14v38.74H151.64V347.04z"/>
		<path class="st2" d="M151.14,430.48h134.14v38.74H151.14V430.48z"/>
		<path class="st2" d="M911.95,99.69h18.02v37.75h-18.02V99.69z"/>
		<path class="st2" d="M3.98,273.53h45.05v57.61H3.98V273.53z"/>
		<path class="st2" d="M3.98,356.97h45.05v57.61H3.98V356.97z"/>
		<path class="st2" d="M3.98,440.41h45.05v57.61H3.98V440.41z"/>
		<path class="st3" d="M695.04,50.7h6.89c-0.65,0.03-1.3-0.07-1.91-0.3c-0.61-0.23-1.17-0.57-1.64-1.02
			c-0.47-0.45-0.85-0.98-1.1-1.58c-0.26-0.59-0.39-1.24-0.39-1.88c0-0.65,0.13-1.29,0.39-1.88c0.26-0.6,0.63-1.13,1.1-1.58
			c0.47-0.45,1.03-0.79,1.64-1.02c0.61-0.23,1.26-0.33,1.91-0.3h55.79c1.24,0.06,2.41,0.58,3.27,1.48c0.86,0.89,1.34,2.08,1.34,3.31
			c0,1.23-0.48,2.42-1.34,3.31c-0.86,0.89-2.03,1.42-3.27,1.48h-6.89c0.65-0.03,1.3,0.07,1.91,0.3c0.61,0.23,1.17,0.57,1.64,1.02
			c0.47,0.45,0.85,0.98,1.1,1.58c0.26,0.6,0.39,1.24,0.39,1.88c0,0.65-0.13,1.29-0.39,1.88c-0.26,0.6-0.63,1.13-1.1,1.58
			c-0.47,0.45-1.03,0.79-1.64,1.02c-0.61,0.23-1.26,0.33-1.91,0.3h9.64c1.24,0.06,2.41,0.58,3.27,1.48
			c0.86,0.89,1.34,2.08,1.34,3.31s-0.48,2.42-1.34,3.31c-0.86,0.89-2.03,1.42-3.27,1.48h-55.79c-1.24-0.06-2.41-0.58-3.27-1.48
			c-0.86-0.89-1.34-2.08-1.34-3.31s0.48-2.42,1.34-3.31c0.86-0.89,2.03-1.42,3.27-1.48h-9.64c-0.65,0.03-1.3-0.07-1.91-0.3
			c-0.61-0.23-1.17-0.57-1.64-1.02c-0.47-0.45-0.85-0.98-1.1-1.58c-0.26-0.59-0.39-1.24-0.39-1.88c0-0.65,0.13-1.29,0.39-1.88
			c0.26-0.6,0.63-1.13,1.1-1.58c0.47-0.45,1.03-0.79,1.64-1.02C693.74,50.78,694.39,50.67,695.04,50.7z"/>
		<path class="st3" d="M448.78,170.9h6.89c-0.65,0.03-1.3-0.07-1.91-0.3s-1.17-0.57-1.64-1.02c-0.47-0.45-0.85-0.99-1.1-1.58
			c-0.26-0.6-0.39-1.24-0.39-1.88s0.13-1.29,0.39-1.88c0.26-0.6,0.63-1.13,1.1-1.58c0.47-0.45,1.03-0.79,1.64-1.02
			c0.61-0.23,1.26-0.33,1.91-0.3h55.79c1.24,0.06,2.41,0.58,3.27,1.48c0.86,0.89,1.34,2.08,1.34,3.31s-0.48,2.42-1.34,3.31
			c-0.86,0.89-2.03,1.42-3.27,1.48h-6.89c0.65-0.03,1.3,0.07,1.91,0.3c0.61,0.23,1.17,0.57,1.64,1.02c0.47,0.45,0.85,0.98,1.1,1.58
			c0.26,0.6,0.39,1.24,0.39,1.88c0,0.65-0.13,1.29-0.39,1.88c-0.26,0.6-0.63,1.13-1.1,1.58c-0.47,0.45-1.03,0.79-1.64,1.02
			c-0.61,0.23-1.26,0.33-1.91,0.3h9.64c0.65-0.03,1.3,0.07,1.91,0.3c0.61,0.23,1.17,0.58,1.64,1.02c0.47,0.45,0.85,0.98,1.1,1.58
			c0.26,0.59,0.39,1.24,0.39,1.88c0,0.65-0.13,1.29-0.39,1.88c-0.26,0.6-0.63,1.13-1.1,1.58c-0.47,0.45-1.03,0.79-1.64,1.02
			c-0.61,0.23-1.26,0.33-1.91,0.3h-55.79c-0.65,0.03-1.3-0.07-1.91-0.3c-0.61-0.23-1.17-0.57-1.64-1.02
			c-0.47-0.45-0.85-0.98-1.1-1.58c-0.26-0.6-0.39-1.24-0.39-1.88c0-0.65,0.13-1.29,0.39-1.88c0.26-0.6,0.63-1.13,1.1-1.58
			c0.47-0.45,1.03-0.79,1.64-1.02c0.61-0.23,1.26-0.33,1.91-0.3h-9.64c-0.65,0.03-1.3-0.07-1.91-0.3c-0.61-0.23-1.17-0.57-1.64-1.02
			c-0.47-0.45-0.85-0.98-1.1-1.58c-0.26-0.6-0.39-1.24-0.39-1.88c0-0.65,0.13-1.29,0.39-1.88c0.26-0.6,0.63-1.13,1.1-1.58
			c0.47-0.45,1.03-0.79,1.64-1.02C447.47,170.97,448.13,170.87,448.78,170.9z"/>
		<path class="st3" d="M29.33,13.95h6.89c-0.65,0.03-1.3-0.07-1.91-0.3c-0.61-0.23-1.17-0.57-1.64-1.02
			c-0.47-0.45-0.85-0.98-1.1-1.58c-0.26-0.6-0.39-1.24-0.39-1.88c0-0.65,0.13-1.29,0.39-1.88c0.26-0.6,0.63-1.13,1.1-1.58
			c0.47-0.45,1.03-0.79,1.64-1.02c0.61-0.23,1.26-0.33,1.91-0.3h55.79c1.24,0.06,2.41,0.58,3.27,1.48c0.86,0.89,1.34,2.08,1.34,3.31
			c0,1.23-0.48,2.42-1.34,3.31c-0.86,0.89-2.03,1.42-3.27,1.48h-6.89c0.65-0.03,1.3,0.07,1.91,0.3c0.61,0.23,1.17,0.57,1.64,1.02
			c0.47,0.45,0.85,0.98,1.1,1.58s0.39,1.24,0.39,1.88s-0.13,1.29-0.39,1.88s-0.63,1.13-1.1,1.58c-0.47,0.45-1.03,0.79-1.64,1.02
			c-0.61,0.23-1.26,0.33-1.91,0.3h9.64c0.65-0.03,1.3,0.07,1.91,0.3c0.61,0.23,1.17,0.57,1.64,1.02c0.47,0.45,0.85,0.98,1.1,1.58
			c0.26,0.6,0.39,1.24,0.39,1.88c0,0.65-0.13,1.29-0.39,1.88c-0.26,0.6-0.63,1.13-1.1,1.58c-0.47,0.45-1.03,0.79-1.64,1.02
			c-0.61,0.23-1.26,0.33-1.91,0.3H38.97c-0.65,0.03-1.3-0.07-1.91-0.3c-0.61-0.23-1.17-0.57-1.64-1.02
			c-0.47-0.45-0.85-0.98-1.1-1.58c-0.26-0.59-0.39-1.24-0.39-1.88c0-0.65,0.13-1.29,0.39-1.88c0.26-0.59,0.63-1.13,1.1-1.58
			c0.47-0.45,1.03-0.79,1.64-1.02c0.61-0.23,1.26-0.33,1.91-0.3h-9.64c-0.65,0.03-1.3-0.07-1.91-0.3c-0.61-0.23-1.17-0.57-1.64-1.02
			s-0.85-0.98-1.1-1.58c-0.26-0.6-0.39-1.24-0.39-1.88s0.13-1.29,0.39-1.88c0.26-0.6,0.63-1.13,1.1-1.58
			c0.47-0.45,1.03-0.79,1.64-1.02C28.03,14.02,28.68,13.92,29.33,13.95z"/>
		
			<linearGradient id="SVGID_3_" gradientUnits="userSpaceOnUse" x1="191.1458" y1="427.541" x2="191.1458" y2="562.11" gradientTransform="matrix(1 0 0 -1 2.131348e-04 664.1101)">
			<stop  offset="0" style="stop-color:#808080;stop-opacity:0.25"/>
			<stop  offset="0.54" style="stop-color:#808080;stop-opacity:0.12"/>
			<stop  offset="1" style="stop-color:#808080;stop-opacity:0.1"/>
		</linearGradient>
		<path class="st4" d="M40.8,106.5c8.44-0.08,16.87,0.42,25.24,1.51c0-1.59,0.64-3.12,1.77-4.25c1.14-1.13,2.68-1.76,4.28-1.76
			s3.15,0.63,4.28,1.76c1.14,1.13,1.77,2.66,1.77,4.25c8.37-1.09,16.8-1.59,25.24-1.51c18.67,0,33.81,1.99,33.81,4.51
			c0,2.52-15.14,4.51-33.81,4.51c-8.44,0.08-16.87-0.42-25.24-1.51c0,0.72-0.13,1.44-0.39,2.12c0.55,0.33,1,0.79,1.33,1.34
			c0.33,0.55,0.52,1.16,0.56,1.8c0.04,0.64-0.08,1.27-0.34,1.85c-0.26,0.58-0.66,1.09-1.16,1.49c1.47,0.5,2.82,1.29,3.96,2.34
			s2.05,2.31,2.68,3.72c1.67-1.27,3.7-2,5.81-2.1l62.88-2.78c2.29-3.04,5.26-5.51,8.68-7.2c3.42-1.7,7.19-2.58,11.01-2.58h39.58
			c3.85,0,7.66,0.9,11.1,2.62c3.44,1.72,6.42,4.23,8.71,7.31l59.72,2.65c1.95,0.08,3.83,0.71,5.44,1.82
			c1.18-2.5,3.25-4.48,5.82-5.54c-0.64-0.41-1.16-0.99-1.48-1.67c-0.32-0.69-0.44-1.45-0.34-2.2c0.1-0.75,0.41-1.46,0.9-2.04
			c0.49-0.58,1.14-1.01,1.87-1.23c-0.17-0.56-0.25-1.14-0.25-1.72c-8.37,1.09-16.8,1.59-25.24,1.51c-18.67,0-33.82-1.99-33.82-4.51
			c0-2.52,15.14-4.51,33.82-4.51c8.44-0.08,16.87,0.42,25.24,1.51c0-1.58,0.63-3.1,1.76-4.21c1.13-1.12,2.65-1.74,4.25-1.74
			c1.59,0,3.12,0.63,4.25,1.74c1.13,1.12,1.76,2.63,1.76,4.21c8.37-1.09,16.8-1.59,25.24-1.51c18.67,0,33.82,1.99,33.82,4.51
			c0,2.52-15.14,4.51-33.82,4.51c-8.44,0.08-16.87-0.42-25.24-1.51c0,0.72-0.13,1.44-0.39,2.12c0.56,0.34,1.03,0.82,1.37,1.38
			c0.33,0.57,0.52,1.21,0.54,1.86c0.02,0.65-0.12,1.31-0.41,1.89c-0.29,0.59-0.72,1.1-1.26,1.48c2.12,0.79,3.94,2.21,5.23,4.05
			s1.98,4.04,1.98,6.29v7.41c0,2.92-1.17,5.72-3.24,7.79c-2.07,2.07-4.88,3.24-7.82,3.27h-4.43c-1.74,0-3.45-0.4-5.01-1.18
			c-1.55-0.78-2.9-1.9-3.93-3.29c-1.84,1.7-4.25,2.68-6.77,2.75l-58.56,1.63c-1.87,2.93-4.34,5.43-7.26,7.34
			c5.61,5.65,27.47,30.71,23.95,74.88c0,0-3.53,6.51-12.61,0c0,0,5.81-49.21-26.7-69.47c-0.55,1.57-1.58,2.93-2.95,3.89
			c-1.37,0.96-3,1.48-4.67,1.48h-4.15c4.7,1.84,8.61,5.25,11.04,9.64c2.44,4.39,3.26,9.49,2.31,14.42
			c-0.94,4.93-3.59,9.37-7.48,12.57c-3.89,3.2-8.79,4.95-13.84,4.95s-9.95-1.75-13.84-4.95c-3.89-3.2-6.54-7.64-7.48-12.57
			c-0.94-4.93-0.13-10.02,2.31-14.42c2.44-4.39,6.35-7.8,11.04-9.64h-4.15c-1.68,0-3.31-0.52-4.67-1.48
			c-1.37-0.96-2.39-2.32-2.94-3.89c-32.51,20.26-26.7,69.47-26.7,69.47c-9.08,6.51-12.61,0-12.61,0
			c-4-50.58,25.24-76.11,25.24-76.11h0.53c-2.15-1.69-4.01-3.72-5.49-6.02l-61.65-1.71c-2.65-0.06-5.18-1.13-7.06-2.98
			c-1.03,1.47-2.39,2.66-3.99,3.49c-1.59,0.83-3.37,1.26-5.16,1.26h-4.43c-1.46,0-2.91-0.29-4.27-0.84
			c-1.35-0.56-2.58-1.37-3.62-2.4c-1.04-1.03-1.86-2.25-2.42-3.59c-0.56-1.34-0.85-2.78-0.85-4.23v-7.41c0-2.14,0.62-4.23,1.8-6.02
			c1.17-1.79,2.84-3.21,4.81-4.08c-0.68-0.38-1.24-0.94-1.61-1.63c-0.36-0.69-0.52-1.46-0.44-2.24c0.08-0.77,0.38-1.5,0.87-2.11
			c0.49-0.6,1.15-1.05,1.9-1.29c-0.17-0.56-0.25-1.14-0.25-1.72c-8.37,1.09-16.8,1.59-25.24,1.51c-18.67,0-33.82-1.99-33.82-4.51
			C7,108.53,22.12,106.5,40.8,106.5z"/>
		<path class="st5" d="M191.18,208.77c-11.3,0-20.46-9.09-20.46-20.3c0-11.21,9.16-20.3,20.46-20.3c11.3,0,20.46,9.09,20.46,20.3
			C211.64,199.68,202.48,208.77,191.18,208.77z"/>
		<path class="st5" d="M191.18,202.17c-7.62,0-13.8-6.13-13.8-13.7c0-7.57,6.18-13.7,13.8-13.7c7.62,0,13.8,6.13,13.8,13.7
			C204.98,196.04,198.8,202.17,191.18,202.17z"/>
		<path class="st6" d="M191.18,202.17c-7.62,0-13.8-6.13-13.8-13.7c0-7.57,6.18-13.7,13.8-13.7c7.62,0,13.8,6.13,13.8,13.7
			C204.98,196.04,198.8,202.17,191.18,202.17z"/>
		<path class="st5" d="M191.18,197.44c-4.99,0-9.04-4.02-9.04-8.97s4.05-8.97,9.04-8.97c4.99,0,9.04,4.02,9.04,8.97
			S196.17,197.44,191.18,197.44z"/>
		<path class="st7" d="M191.18,197.44c-4.99,0-9.04-4.02-9.04-8.97s4.05-8.97,9.04-8.97c4.99,0,9.04,4.02,9.04,8.97
			S196.17,197.44,191.18,197.44z"/>
		<path class="st5" d="M223.07,158.24c0,0,27.6,24.1,23.8,71.78c0,0-3.33,6.14-11.9,0c0,0,7.14-60.46-40.45-71.79L223.07,158.24z"/>
		<path class="st5" d="M159.29,158.24c0,0-27.61,24.1-23.84,71.78c0,0,3.33,6.14,11.9,0c0,0-7.14-60.46,40.45-71.79L159.29,158.24z"
			/>
		<path class="st5" d="M174.17,117.15h37.36c12.82,0,23.21,10.31,23.21,23.03c0,12.72-10.39,23.03-23.21,23.03h-37.36
			c-12.82,0-23.21-10.31-23.21-23.03C150.96,127.46,161.35,117.15,174.17,117.15z"/>
		<path class="st5" d="M221.01,152.76l65.36-1.82c2.55-0.07,4.98-1.13,6.76-2.94c1.78-1.82,2.78-4.25,2.77-6.78v-2.48
			c0-2.5-0.97-4.91-2.72-6.72c-1.74-1.81-4.12-2.88-6.64-3l-65.36-2.91c-1.32-0.06-2.64,0.15-3.88,0.61
			c-1.24,0.46-2.37,1.17-3.33,2.08c-0.96,0.91-1.72,2-2.24,3.21c-0.52,1.21-0.79,2.51-0.79,3.82v7.22c0,1.3,0.26,2.59,0.77,3.78
			c0.51,1.2,1.26,2.28,2.2,3.18c0.94,0.91,2.05,1.62,3.27,2.09S219.7,152.8,221.01,152.76z"/>
		<path class="st5" d="M161.82,152.76l-65.36-1.82c-2.55-0.07-4.98-1.13-6.76-2.94c-1.78-1.82-2.78-4.25-2.77-6.78v-2.48
			c0-2.5,0.97-4.91,2.72-6.72c1.74-1.81,4.12-2.88,6.64-3l65.36-2.91c1.32-0.06,2.64,0.15,3.88,0.61c1.24,0.46,2.37,1.17,3.33,2.08
			c0.96,0.91,1.72,2,2.24,3.21c0.52,1.21,0.79,2.51,0.79,3.82v7.22c0,1.3-0.26,2.59-0.77,3.78c-0.51,1.2-1.26,2.28-2.2,3.18
			c-0.94,0.91-2.05,1.62-3.27,2.09C164.44,152.57,163.13,152.8,161.82,152.76z"/>
		<path class="st6" d="M221.01,152.76l65.36-1.82c2.55-0.07,4.98-1.13,6.76-2.94c1.78-1.82,2.78-4.25,2.77-6.78v-2.48
			c0-2.5-0.97-4.91-2.72-6.72c-1.74-1.81-4.12-2.88-6.64-3l-65.36-2.91c-1.32-0.06-2.64,0.15-3.88,0.61
			c-1.24,0.46-2.37,1.17-3.33,2.08c-0.96,0.91-1.72,2-2.24,3.21c-0.52,1.21-0.79,2.51-0.79,3.82v7.22c0,1.3,0.26,2.59,0.77,3.78
			c0.51,1.2,1.26,2.28,2.2,3.18c0.94,0.91,2.05,1.62,3.27,2.09S219.7,152.8,221.01,152.76z"/>
		<path class="st6" d="M161.82,152.76l-65.36-1.82c-2.55-0.07-4.98-1.13-6.76-2.94c-1.78-1.82-2.78-4.25-2.77-6.78v-2.48
			c0-2.5,0.97-4.91,2.72-6.72c1.74-1.81,4.12-2.88,6.64-3l65.36-2.91c1.32-0.06,2.64,0.15,3.88,0.61c1.24,0.46,2.37,1.17,3.33,2.08
			c0.96,0.91,1.72,2,2.24,3.21c0.52,1.21,0.79,2.51,0.79,3.82v7.22c0,1.3-0.26,2.59-0.77,3.78c-0.51,1.2-1.26,2.28-2.2,3.18
			c-0.94,0.91-2.05,1.62-3.27,2.09C164.44,152.57,163.13,152.8,161.82,152.76z"/>
		<path class="st5" d="M301.83,124.71h2.86c6.18,0,11.18,4.97,11.18,11.1v5.67c0,6.13-5.01,11.1-11.18,11.1h-2.86
			c-6.18,0-11.18-4.97-11.18-11.1v-5.67C290.65,129.68,295.66,124.71,301.83,124.71z"/>
		<path class="st5" d="M77.66,124.71h2.86c6.18,0,11.18,4.97,11.18,11.1v5.67c0,6.13-5.01,11.1-11.18,11.1h-2.86
			c-6.18,0-11.18-4.97-11.18-11.1v-5.67C66.47,129.68,71.48,124.71,77.66,124.71z"/>
		<path class="st5" d="M299.22,118.57h7.62c2.1,0,3.8,1.69,3.8,3.77v0.01c0,2.08-1.7,3.77-3.8,3.77h-7.62c-2.1,0-3.8-1.69-3.8-3.77
			v-0.01C295.42,120.26,297.12,118.57,299.22,118.57z"/>
		<path class="st5" d="M297.79,111.49c0-3.13,2.56-5.67,5.71-5.67s5.71,2.54,5.71,5.67v5.66c0,3.13-2.56,5.67-5.71,5.67
			s-5.71-2.54-5.71-5.67V111.49z"/>
		<path class="st5" d="M333.02,118.57c-17.61,0-31.89-1.9-31.89-4.25c0-2.35,14.28-4.25,31.89-4.25c17.62,0,31.89,1.9,31.89,4.25
			C364.91,116.67,350.63,118.57,333.02,118.57z"/>
		<path class="st5" d="M273.99,118.57c-17.61,0-31.89-1.9-31.89-4.25c0-2.35,14.28-4.25,31.89-4.25c17.62,0,31.89,1.9,31.89,4.25
			C305.89,116.67,291.61,118.57,273.99,118.57z"/>
		<path class="st5" d="M74.57,118.57h7.62c2.1,0,3.8,1.69,3.8,3.77v0.01c0,2.08-1.7,3.77-3.8,3.77h-7.62c-2.1,0-3.8-1.69-3.8-3.77
			v-0.01C70.77,120.26,72.47,118.57,74.57,118.57z"/>
		<path class="st5" d="M73.14,111.49c0-3.13,2.56-5.67,5.71-5.67s5.71,2.54,5.71,5.67v5.66c0,3.13-2.56,5.67-5.71,5.67
			s-5.71-2.54-5.71-5.67V111.49z"/>
		<path class="st5" d="M108.36,118.57c-17.61,0-31.89-1.9-31.89-4.25c0-2.35,14.28-4.25,31.89-4.25c17.61,0,31.89,1.9,31.89,4.25
			C140.25,116.67,125.97,118.57,108.36,118.57z"/>
		<path class="st5" d="M49.35,118.57c-17.61,0-31.89-1.9-31.89-4.25c0-2.35,14.28-4.25,31.89-4.25c17.61,0,31.89,1.9,31.89,4.25
			C81.24,116.67,66.96,118.57,49.35,118.57z"/>
		<path class="st6" d="M333.02,118.57c-17.61,0-31.89-1.9-31.89-4.25c0-2.35,14.28-4.25,31.89-4.25c17.62,0,31.89,1.9,31.89,4.25
			C364.91,116.67,350.63,118.57,333.02,118.57z"/>
		<path class="st6" d="M273.99,118.57c-17.61,0-31.89-1.9-31.89-4.25c0-2.35,14.28-4.25,31.89-4.25c17.62,0,31.89,1.9,31.89,4.25
			C305.89,116.67,291.61,118.57,273.99,118.57z"/>
		<path class="st6" d="M108.36,118.57c-17.61,0-31.89-1.9-31.89-4.25c0-2.35,14.28-4.25,31.89-4.25c17.61,0,31.89,1.9,31.89,4.25
			C140.25,116.67,125.97,118.57,108.36,118.57z"/>
		<path class="st6" d="M49.35,118.57c-17.61,0-31.89-1.9-31.89-4.25c0-2.35,14.28-4.25,31.89-4.25c17.61,0,31.89,1.9,31.89,4.25
			C81.24,116.67,66.96,118.57,49.35,118.57z"/>
		<path class="st5" d="M179.75,154.46h22.85c4.21,0,7.62,3.38,7.62,7.56c0,4.17-3.41,7.55-7.62,7.55h-22.85
			c-4.21,0-7.62-3.38-7.62-7.55C172.13,157.84,175.55,154.46,179.75,154.46z"/>
		<path class="st6" d="M179.75,154.46h22.85c4.21,0,7.62,3.38,7.62,7.56c0,4.17-3.41,7.55-7.62,7.55h-22.85
			c-4.21,0-7.62-3.38-7.62-7.55C172.13,157.84,175.55,154.46,179.75,154.46z"/>
		<path class="st8" d="M159.67,233.96h84.8v84.15h-84.8h-21.66v-84.15H159.67z"/>
		<path class="st7" d="M138,233.96h21.67v84.15H138V233.96z"/>
		<path class="st7" d="M218.1,247.98h16.02v8.41H218.1V247.98z"/>
		<path class="st8" d="M198.13,224.06c-3.6,5.07-3,11.59-3,11.59s6.39-1.68,10.01-6.75c3.62-5.07,5.01-10.25,3-11.59
			S201.74,218.99,198.13,224.06z"/>
		<path class="st8" d="M192.04,224.06c3.6,5.07,3,11.59,3,11.59s-6.39-1.68-10.01-6.75c-3.62-5.07-5.01-10.25-3-11.59
			C184.03,215.98,188.43,218.99,192.04,224.06z"/>
		
			<linearGradient id="SVGID_4_" gradientUnits="userSpaceOnUse" x1="755.8678" y1="187.66" x2="755.8678" y2="187.775" gradientTransform="matrix(1 0 0 -1 2.131348e-04 664.1101)">
			<stop  offset="0" style="stop-color:#808080;stop-opacity:0.25"/>
			<stop  offset="0.54" style="stop-color:#808080;stop-opacity:0.12"/>
			<stop  offset="1" style="stop-color:#808080;stop-opacity:0.1"/>
		</linearGradient>
		<path class="st9" d="M755.81,326.13l0.11,0.34C755.88,326.36,755.84,326.24,755.81,326.13z"/>
		
			<linearGradient id="SVGID_5_" gradientUnits="userSpaceOnUse" x1="641.9526" y1="-335679.875" x2="641.9526" y2="-129755.8906" gradientTransform="matrix(1 0 0 -1 2.131348e-04 664.1101)">
			<stop  offset="0" style="stop-color:#808080;stop-opacity:0.25"/>
			<stop  offset="0.54" style="stop-color:#808080;stop-opacity:0.12"/>
			<stop  offset="1" style="stop-color:#808080;stop-opacity:0.1"/>
		</linearGradient>
		<path class="st10" d="M433.56,600.89c-0.07-0.1-0.14-0.19-0.19-0.29l-0.11-0.21c-0.05-0.1-0.11-0.19-0.15-0.29l-0.08-0.21
			c0-0.1-0.08-0.2-0.11-0.3c-0.03-0.1,0-0.13-0.05-0.2c-0.05-0.07-0.05-0.2-0.07-0.31c-0.02-0.11,0-0.12,0-0.19
			c0-0.07,0-0.21,0-0.32c0-0.11,0-0.11,0-0.17c0-0.06,0-0.22,0-0.33s0-0.1,0-0.15c0-0.05,0-0.23,0-0.34v-0.13
			c0-0.12,0-0.24,0.08-0.36v-0.11c0-0.13,0.08-0.25,0.12-0.38v-0.08c0.05-0.13,0.1-0.26,0.16-0.39v-0.06
			c0.06-0.14,0.13-0.28,0.2-0.41l0.24-0.43c0.92-1.42,2.08-2.67,3.43-3.69c10.32,4.22,23.02-0.61,23.02-0.61s17.02-8.43,15.79-6.03
			c-0.41,0.82-0.2,2.43,0.26,4.24c8.15-1.7,12.64-6.04,15.09-9.93l-9.28-9.93c0,0,37.65-21.09,41.89-31.94
			c4.24-10.85,24.9-41.57,24.9-41.57s6.68-24.1,18.82-29.52c0,0,24.22-28.71,38.36-53.32c-5.01-12.41-12.01-31.79-10.43-40.06
			c2-10.31-0.07-29.8-0.9-36.69c-6.72,5.56-34.04,27.59-44.64,27.06c-3.81-0.19-7.92-2.21-11.77-4.92
			c-9.17-5.76-17.38-16.17-17.38-16.17c1.24,0.12,2.25-0.99,3.07-2.88c-10.14-10.93-31.14-33.42-33.43-33.87
			c-3-0.61-19.43-28.92-10.32-34.95c9.11-6.03,25.5,15.67,26.11,19.87c0.41,2.86,13.11,15.42,21.24,23.2c0-0.2,0-0.31,0-0.31
			l1.2,0.6c0-0.38,0-0.6,0-0.6l20.97,10.4l17.89-24.26c0,0,4.86-25.91,17.02-30.13c12.16-4.22,21.14-17.22,21.14-17.22
			c0.11,0.42,0.2,0.85,0.27,1.28c0.61-0.8,0.94-1.28,0.94-1.28s0,0.11,0.08,0.29c0.92-3.71,1.15-7.55,0.69-11.34l-0.17-0.1
			c-0.07-0.47-0.15-0.91-0.23-1.34c-6.21-3.74-10.86-9.56-13.12-16.41c-2.26-6.85-1.97-14.28,0.82-20.93
			c-3.09-2.15-7.58-3.48-11.39-5.11c-5.39-2.18-10.12-5.73-13.7-10.28c2.09-0.52,4.28-0.47,6.35,0.13c0.26-2.79-3-5.96-0.46-8.09
			c1.56-1.32,4.47-1.2,6.7-0.55c2.22,0.66,4.25,1.73,6.62,1.99c4.11,0.5,8.01-1.48,10.94-3.62c2.93-2.14,5.7-4.64,9.62-5.65
			c7.8-1.99,15.53,2.59,23.35,4.54c12.57,3.12,20.02,6.46,20.63,14.4c1.62,1.08,3.11,2.34,4.45,3.75c2.7,2.33,4.57,5.47,5.33,8.94
			c1.06,5.4-1.14,10.93-3.8,15.73c-1.51,2.75-8.78,17.01-13.72,15.13c-1.37,1.56-2.89,2.97-4.54,4.22c0.16,1.64,0.39,3.3,0.65,4.97
			c1.11,0.6,2.32,1.02,3.57,1.22c2.72,0.5,5.48,0.74,8.24,0.71c4.32-0.03,8.63-0.29,12.92-0.78c4.17-0.48,8.37-0.72,12.56-0.72
			c2.09-0.01,4.18,0.09,6.27,0.3h0.32l1.24,0.15h0.19l1.35,0.22h0.15l1.1,0.22l0.25,0.05l1.12,0.27l1.1,0.31l0.18,0.05l0.86,0.27
			l0.19,0.06c0.65,0.22,1.26,0.46,1.84,0.7l0.18,0.08l0.72,0.31l0.13,0.06l0.81,0.38h0.07l0.7,0.35l0.17,0.09l0.68,0.35l0.86,0.45
			l0.52,0.27l0.24,0.13l0.71,0.36c6.08,2.98,64.97,18.68,75.29,50l-0.21,0.19l-0.23,0.21c0.17,0.46,0.34,0.91,0.49,1.37
			c0,0-1,0.89-2.56,2.34c2.77,11.98,10.2,42.59,14.1,44.04c4.86,1.81,10.32,38.56-2.43,37.36c-12.75-1.2-12.75-30.72-12.75-30.72
			s-8.41-22.37-14.6-33.72c-1.07,1.41-1.89,3-2.43,4.68v0.13v-0.12c-0.15,0.52-0.17,1.06-0.07,1.59c-0.6-1.75-3.71-9.77-10.21-8.7
			c-6.94,1.15-33.14-24.47-35.63-26.92c0.06,0.67,0.14,1.5,0.22,2.46c0,0.57,0.1,1.17,0.15,1.83v0.21v0.5v0.33v0.51v0.36v0.51v0.46
			l0.05,0.74v0.61v0.43v0.61v0.41v0.64v0.43v0.69v0.4l0.07,1.09v0.15l0.06,0.99v0.35v0.83v0.4v0.85v0.36l0.05,0.99v0.2
			c0,0.43,0.02,0.86,0.06,1.3v0.08c0,0.4,0.02,0.8,0.05,1.19v0.35v0.99v0.4c0,0.33,0,0.66,0,0.99v0.34c0,0.91,0.03,1.82,0.09,2.75
			v0.2c0,0.39,0,0.78,0,1.17v0.36c0,0.35,0,0.7,0,1.05v0.37c0,0.38,0,0.77,0,1.16v0.23c0,0.95,0,1.9,0,2.86c0,0.1,0,0.2,0,0.31
			c0,0.37,0,0.74,0,1.11c0,0.13,0,0.26,0,0.39c0,0.35,0,0.7,0,1.06c0,0.1,0,0.2,0,0.3c0,13.14-0.81,26.52-3.78,34.15
			c-1.58,4.1-2.42,8.44-2.48,12.83c0.28,7.93,2.38,15.7,6.13,22.72l-0.71-0.22l0.13,0.23l-0.39-0.12c0.6,1.24,1,1.93,1,1.93
			s-0.88-0.28-2.45-0.73c2.24,7.85,3.73,19.93-0.58,35.08c0,0-2.43,13.25-0.61,18.08c1.82,4.83,3.64,43.38,3.64,43.38
			s3.64,4.82,10.32,1.81c6.68-3.01,88.64-13.25,88.64-13.25s0.19,0.33,0.51,0.91c2.52-0.78,6.16-1.99,8.81-3.09
			c-1-1.37-1.89-2.15-2.64-2.05c0,0,4.38-2.1,9.14-3.76l0.87-0.3l0.85-0.28h0.06l0.81-0.25h0.09l0.74-0.21H829l0.7-0.18h0.18
			l0.67-0.15h0.19l0.6-0.12h0.23l0.54-0.09h0.26l0.49-0.06h0.27h0.46h0.93h0.37h0.24l0.33,0.07h0.22l0.28,0.1l0.2,0.07
			c0.09,0.04,0.18,0.09,0.26,0.15l0.15,0.09c0.12,0.09,0.23,0.19,0.33,0.31c3,3.62,20.02,72.9,12.14,77.72l-0.68,0.41l-0.28,0.16
			l-0.36,0.2l-0.35,0.18l-0.25,0.13l-0.38,0.18l-0.19,0.09l-0.39,0.17l-0.14,0.06l-0.4,0.15h-0.09l-0.41,0.13h-0.05
			c-4.41,1.18-5.87-2.86-11.2-11.52c-5.23-8.48-11.94-19.18-17.81-23.14c-0.13,0.29-0.26,0.58-0.4,0.85c0,0-61.33,6.63-83.79,13.91
			c-22.46,7.28-40.04,16.89-54.65,0c-13.07-15.13-26.14-64.19-28.69-74.13l-0.38-1.49v-0.13v-0.13l-48.57,36.75l-21.25,24.7
			c0,0-29.75,41.57-35.22,42.18c-5.47,0.61-30.08,40.39-30.08,40.39l-0.92-0.99c-0.22,1.1-0.39,2.12-0.52,2.98
			c2,4.78,0.15,10.54-1.67,14.33l-0.08,0.16l-0.21,0.42l-0.11,0.22l-0.2,0.39l-0.1,0.19l-0.21,0.4l-0.11,0.19l-0.16,0.29l-0.08,0.15
			l-0.21,0.36l-0.09,0.15l-0.13,0.21l-0.07,0.12l-0.16,0.26l-0.06,0.1l-0.1,0.15v0.07l-0.1,0.16l-0.06,0.08
			c0,0-63.76-15.06-71.65-19.87c-0.25-0.15-0.48-0.31-0.7-0.47l-0.2-0.16l-0.4-0.32l-0.2-0.19l-0.31-0.29l-0.18-0.21L433.8,601
			L433.56,600.89z"/>
		<path class="st11" d="M803.84,483.22c0,0,14.2-4.11,14.79-5.87s12.42,32.27,12.42,32.27l-11.83,8.22c0,0-12.42-7.04-18.93-5.87
			C793.78,513.14,803.84,483.22,803.84,483.22z"/>
		<path class="st11" d="M498.08,567.14c0,0-1.77,15.89-21.29,17.6c-19.52,1.71,13.01,15.89,13.01,15.89l24.84,1.76
			c0,0,0.59-9.93,4.73-17.6C523.52,577.12,498.08,567.14,498.08,567.14z"/>
		<path class="st12" d="M703.3,388.74c0,0,11.23,17.02,3.54,44.02c0,0-2.36,12.91-0.59,17.6c1.77,4.69,3.54,42.26,3.54,42.26
			s3.54,4.7,10.01,1.76s86.34-12.91,86.34-12.91s13.01,22.3,5.92,35.76c0,0-59.73,6.46-81.62,13.5c-21.88,7.04-39.04,16.43-53.23,0
			c-14.18-16.43-28.39-73.94-28.39-73.94l-47.31,35.76l-20.7,24.06c0,0-28.98,40.49-34.31,41.08s-30.16,39.32-30.16,39.32
			l-30.16-32.27c0,0,36.73-20.45,40.86-31.02c4.14-10.57,24.25-40.49,24.25-40.49s6.51-23.47,18.33-28.76
			c0,0,42.59-50.47,46.72-73.94c4.13-23.47,70.99-12.31,70.99-12.31L703.3,388.74z"/>
		<path class="st13" d="M483.29,591.76c0,0-4.14-9.39-3-11.74c1.14-2.35-15.31,5.9-15.31,5.9s-12.42,4.7-22.47,0.59
			c0,0-8.87,6.46-1.18,11.15c7.69,4.69,69.78,19.37,69.78,19.37s9.46-13.5,1.77-21.13L483.29,591.76z"/>
		<path class="st14" d="M527.05,533.69c4.15-10.56,24.25-40.49,24.25-40.49s6.51-23.47,18.33-28.76c0,0,42.59-50.47,46.72-73.94
			c0.85-4.84,4.38-8.2,9.42-10.5l8.25,24.58l11.26,33.58c2.17,6.48,4.23,13.7,4,20.39c-0.29-1.11-0.44-1.73-0.44-1.73l-47.31,35.76
			l-20.7,24.06c0,0-28.98,40.49-34.31,41.07c-5.33,0.59-30.16,39.32-30.16,39.32l-30.16-32.27
			C486.2,564.76,522.92,544.25,527.05,533.69z"/>
		<path class="st15" d="M606.91,237.92c0,0,5.01,12.62-1.48,24.36c-6.49,11.74,2.66,32.57,8.58,33.77s29.57-14.09,31.34-24.06
			c1.77-9.97-7.69-30.52-3-44.02L606.91,237.92z"/>
		<path class="st14" d="M638.84,259.63c0,0-18.33,36.97-38.44,10.56c0,0-20.11,40.49-13.6,46.94c4.63,4.47,9.57,8.6,14.78,12.38
			l10.64,73.95c0,0,60.32-20.54,85.75-17.02l-39.04-92.72L638.84,259.63z"/>
		<path class="st16" d="M638.84,257.87c0,0-18.33,36.97-38.44,10.56c0,0-20.11,40.49-13.6,46.94c4.63,4.45,9.57,8.57,14.78,12.33
			l10.64,73.95c0,0,60.32-20.54,85.75-17.02l-39.04-92.72L638.84,257.87z"/>
		<path class="st15" d="M769.54,300.71c0,0,10.01,45.77,14.78,47.53c4.78,1.76,10.01,37.56-2.36,36.39s-12.42-29.93-12.42-29.93
			s-13.01-34.63-18.33-38.74C745.89,311.84,769.54,300.71,769.54,300.71z"/>
		<path class="st15" d="M537.11,321.84c0,0-26.62-24.64-27.21-28.76c-0.59-4.11-16.56-25.23-25.43-19.37
			c-8.87,5.86,7.1,33.45,10.01,34.04c2.91,0.6,37.85,38.74,37.85,38.74L537.11,321.84z"/>
		<path class="st14" d="M641.5,248.19c0,0,3.25,3.81,25.14,1.47c21.88-2.35,27.21,1.76,33.11,4.7c5.91,2.94,63.28,18.19,73.34,48.67
			c0,0-22.47,19.96-20.11,25.23c0,0-3-9.93-10.01-8.8c-7.01,1.13-34.9-26.41-34.9-26.41s5.33,51.65-1.77,69.83
			c-7.1,18.18,3.54,36.39,3.54,36.39s-50.27-15.89-72.75-8.21c0,0-13.01-58.1-1.77-81.57c11.24-23.47-4.73-45.77-4.73-45.77
			L641.5,248.19z"/>
		<path class="st14" d="M640.91,246.43c0,0,3.25,3.82,25.14,1.47c21.88-2.34,27.21,1.76,33.12,4.7
			c5.91,2.94,63.28,18.19,73.34,48.67c0,0-22.47,19.96-20.11,25.23c0,0-3-9.93-10.01-8.8c-7.01,1.13-34.9-26.41-34.9-26.41
			s5.33,51.65-1.77,69.83c-7.1,18.18,3.53,36.42,3.53,36.42s-50.27-15.89-72.75-8.21c0,0-13.01-58.1-1.77-81.57
			c11.24-23.47-4.76-45.78-4.76-45.78L640.91,246.43z"/>
		<path class="st17" d="M641.5,246.43c0,0,3.25,3.82,25.14,1.47c21.88-2.34,27.21,1.76,33.11,4.7c5.91,2.94,63.28,18.19,73.34,48.67
			c0,0-22.47,19.96-20.11,25.23c0,0-3-9.93-10.01-8.8c-7.01,1.13-34.9-26.41-34.9-26.41s5.33,51.65-1.77,69.83
			c-7.1,18.18,3.54,36.39,3.54,36.39s-50.27-15.89-72.75-8.21c0,0-13.01-58.1-1.77-81.57c11.24-23.47-4.77-45.75-4.77-45.75
			L641.5,246.43z"/>
		<path class="st14" d="M608.38,257c0,0-8.58,12.62-20.4,16.73c-11.82,4.11-16.56,29.34-16.56,29.34l-17.74,24.06l-21.29-10.53
			c0,0-0.59,28.76-6.51,28.17c0,0,14.79,18.78,26.62,19.37c11.83,0.59,44.94-27.67,44.94-27.67s3.54,25.83,1.18,38.14
			c-2.36,12.32,14.79,49.89,14.79,49.89l23.66-4.7c0,0-12.42-46.95-27.8-54.57c0,0,0-31.69,2.36-39.32
			c2.36-7.63-15.38-36.39-13.01-42.26c1.33-3.29,6.54-10.33,9.17-16.73C608.98,263.75,609.19,260.29,608.38,257z"/>
		<path class="st14" d="M606.6,255.82c0,0-8.58,12.62-20.4,16.73c-11.82,4.11-16.56,29.34-16.56,29.34l-17.74,24.06l-21.29-10.56
			c0,0-0.59,28.76-6.51,28.17c0,0,14.79,18.78,26.62,19.37c11.83,0.59,44.95-27.58,44.95-27.58s3.54,25.83,1.18,38.14
			c-2.36,12.32,14.79,49.89,14.79,49.89l23.65-4.7c0,0-12.42-46.95-27.8-54.57c0,0,0-31.69,2.36-39.32
			c2.36-7.63-15.38-36.39-13.01-42.26c1.33-3.29,6.54-10.33,9.17-16.73C607.23,262.61,607.44,259.13,606.6,255.82z"/>
		<path class="st17" d="M607.79,255.82c0,0-8.58,12.62-20.4,16.73c-11.82,4.11-16.56,29.34-16.56,29.34l-17.75,24.06l-21.29-10.56
			c0,0-0.59,28.76-6.51,28.17c0,0,14.79,18.78,26.62,19.37c11.83,0.59,44.95-27.58,44.95-27.58s3.54,25.83,1.18,38.14
			c-2.36,12.32,14.79,49.89,14.79,49.89l23.66-4.7c0,0-12.42-46.95-27.8-54.57c0,0,0-31.69,2.36-39.32
			c2.36-7.63-15.38-36.39-13.01-42.26c1.33-3.29,6.54-10.33,9.17-16.73C608.41,262.61,608.62,259.13,607.79,255.82z"/>
		<path class="st18" d="M606.78,256.81c0,0-8.58,12.61-20.4,16.73c-11.82,4.11-16.56,29.34-16.56,29.34l-17.75,24.06l-21.29-10.56
			c0,0-0.59,28.76-6.51,28.17c0,0,14.79,18.79,26.62,19.37c11.83,0.59,44.95-27.58,44.95-27.58s3.54,25.83,1.18,38.14
			c-2.36,12.32,14.78,49.89,14.78,49.89l23.66-4.7c0,0-12.42-46.95-27.8-54.57c0,0,0-31.69,2.36-39.32
			c2.36-7.63-15.38-36.39-13.01-42.26c1.33-3.29,6.54-10.33,9.17-16.73C607.41,263.61,607.61,260.12,606.78,256.81z"/>
		<path class="st13" d="M812.71,477.35c0,0,17.15-8.21,20.11-4.7c2.96,3.52,19.52,71,11.83,75.7c-7.69,4.7-8.28,1.17-14.78-9.39
			c-6.51-10.56-15.38-24.65-21.88-24.06c0,0,18.93-6.46,18.33-8.8C825.72,503.77,816.85,476.77,812.71,477.35z"/>
		<path class="st14" d="M641.31,243.09c-4.69,3.52-10.32,5.58-16.19,5.91c-5.87,0.33-11.71-1.09-16.76-4.07
			c-0.29-2-0.78-3.96-1.46-5.86l35.49-9.93C640.92,233.28,640.82,238.13,641.31,243.09z"/>
		<path class="st19" d="M619.37,220.14c-7.21,0.62-16.02-0.73-18.67-5.59c-0.77-1.4-0.93-2.98-1.71-4.34
			c-2.26-4.03-8.73-5.68-13.92-7.95c-5.25-2.13-9.85-5.58-13.35-10.01c2.04-0.51,4.17-0.46,6.19,0.13c0.25-2.71-2.9-5.81-0.45-7.88
			c1.52-1.28,4.35-1.16,6.53-0.53c2.17,0.64,4.14,1.68,6.45,1.99c4,0.49,7.8-1.44,10.66-3.53c2.86-2.09,5.54-4.52,9.37-5.5
			c7.59-1.99,15.13,2.53,22.74,4.42c15.63,3.88,23.2,8.1,18.96,21.57C649.02,212.91,632.48,219.01,619.37,220.14z"/>
		<path class="st15" d="M623.46,247.89c-16.33,0-29.57-13.14-29.57-29.34s13.24-29.34,29.57-29.34c16.33,0,29.57,13.14,29.57,29.34
			S639.79,247.89,623.46,247.89z"/>
		<path class="st14" d="M646.45,214.08c-1.43-5.76-5.57-11.13-11.32-12.73c-4.9-1.36-10.1,0.12-14.89,1.84
			c-4.79,1.72-9.66,3.73-14.74,3.43c-5.08-0.3-10.4-3.77-10.78-8.8c-0.09-0.78,0.04-1.57,0.37-2.27c0.52-0.83,1.24-1.52,2.11-1.99
			c7.44-4.71,15.9-8.41,24.72-8.27c7.26,0.12,14.2,2.82,20.94,5.48c8.51,3.36,18.19,8.06,19.94,16.98c1,5.26-1.11,10.62-3.7,15.33
			c-1.5,2.72-8.77,17.01-13.57,14.65C643.58,236.8,647.37,217.77,646.45,214.08z"/>
		<path class="st19" d="M645.27,212.91c-1.43-5.76-5.57-11.13-11.32-12.74c-4.9-1.36-10.1,0.12-14.89,1.84
			c-4.78,1.72-9.66,3.73-14.74,3.43c-5.08-0.3-10.4-3.77-10.78-8.8c-0.09-0.78,0.04-1.57,0.37-2.28c0.52-0.83,1.24-1.52,2.11-1.99
			c7.44-4.71,15.9-8.41,24.72-8.27c7.26,0.12,14.2,2.82,20.94,5.48c8.51,3.36,18.19,8.06,19.94,16.98c1,5.26-1.11,10.62-3.7,15.33
			c-1.5,2.72-8.77,17.01-13.58,14.65C642.4,235.62,646.18,216.6,645.27,212.91z"/>
		<path class="st20" d="M842.88,548.95c7.69-4.7-8.87-72.19-11.83-75.7c-1.29-1.54-5.32-0.83-9.43,0.46
			c4.67-1.62,9.72-2.81,11.2-0.99c3,3.52,19.52,71,11.83,75.7c-1.31,0.88-2.76,1.54-4.29,1.94
			C841.23,549.94,842.07,549.47,842.88,548.95z"/>
		<path class="st20" d="M439.15,590.11c-0.8,1.99-0.56,4.36,2.75,6.38c7.69,4.7,69.79,19.37,69.79,19.37
			c0.62-0.92,1.18-1.87,1.69-2.85c-0.66,1.4-1.42,2.74-2.28,4.02c0,0-62.07-14.67-69.78-19.37
			C437.33,595.23,437.79,592.33,439.15,590.11z"/>
		<g class="st21">
			<path class="st18" d="M749.82,320.65c4.91-7.85,18.49-19.95,18.49-19.95c-10.01-30.51-67.42-45.77-73.34-48.67
				c-3.26-1.62-6.35-3.6-12.13-4.65c9.01,0.66,12.8,3.22,16.86,5.23c5.92,2.98,63.28,18.19,73.34,48.67c0,0-21.6,19.18-20.21,24.9
				C752.15,324.19,751.13,322.32,749.82,320.65z"/>
			<path class="st18" d="M752.87,326.21l0.11,0.33C752.93,326.43,752.9,326.32,752.87,326.21z"/>
			<path class="st18" d="M640.82,247.39l0.68-0.99c0,0,0.75,0.87,3.93,1.53C643.89,247.86,642.35,247.68,640.82,247.39z"/>
			<path class="st18" d="M742.28,317.76c-0.9-0.08-1.77-0.32-2.58-0.7C740.6,317.12,741.48,317.35,742.28,317.76z"/>
			<path class="st18" d="M665.34,388c-10.58-1.15-20.91-1.17-28.27,1.32c0,0-0.14-0.61-0.37-1.72
				C644.77,386.04,655.13,386.59,665.34,388z"/>
			<path class="st18" d="M704.56,396c-2-3.97-9.18-19.69-3-35.43c7.1-18.19,1.77-69.83,1.77-69.83s2,1.99,5.13,4.97
				c1.09,12.8,3.67,50.5-2.17,65.49c-7.1,18.19,3.54,36.39,3.54,36.39S707.85,396.92,704.56,396z"/>
		</g>
		<path class="st3" d="M174.6,586.13c7.13,3.65,14.6,6.79,21.96,9.93c27.22,11.4,54.85,22.91,84.09,26.82
			c54.88,7.34,111.56-12.54,165.51-0.17c45.2,10.35,82.58,42.07,126.73,56.19c20.53,6.57,41.89,9.14,63.45,9.14h2.83
			c2.67-0.03,5.32-0.1,7.95-0.2c21.85-0.82,43.8-4.02,65.22-8.13c67.64-12.91,136.49-36.58,188.2-80.16
			C749.95,572.22,439.77,530.32,174.6,586.13z"/>
		<path class="st5" d="M334.36,415.66c0,0-19.44,19.29-8.47,47.92c10.97,28.63-18.82,76.24-18.82,76.24l0.91-0.15
			c39.93-6.95,59.77-52.31,37.57-85.97C337.31,441.17,330.53,426.48,334.36,415.66z"/>
		<path class="st22" d="M334.36,415.66c0,0-11.01,23.65,0,42.94c11.01,19.29,1.88,73.44-27.28,81.21"/>
		<path class="st5" d="M368.99,493.68c0,0-22.18-3.51-24.21,16.22c-2.02,19.73-42.67,22.46-42.67,22.46l0.76,0.51
			c33.56,21.85,65.63,13.91,60.79-15.1C361.87,506.98,362.03,496.15,368.99,493.68z"/>
		<path class="st6" d="M368.99,493.68c0,0-22.18-3.51-24.21,16.22c-2.02,19.73-42.67,22.46-42.67,22.46l0.76,0.51
			c33.56,21.85,65.63,13.91,60.79-15.1C361.87,506.98,362.03,496.15,368.99,493.68z"/>
		<path class="st22" d="M368.99,493.68c0,0-17.22,3.76-15.81,19.29c1.41,15.54-25.58,34.16-51.05,19.4"/>
		<path class="st23" d="M284.19,536.13c0,0,13.96-2.77,17.67-6.46c3.71-3.68,20.46-10.15,22.32-5.53c1.86,4.62,25.12,20.3,9.3,23.08
			c-15.82,2.77-37.21,3.7-41.85,1.85C286.98,547.21,284.19,536.13,284.19,536.13z"/>
		<path class="st24" d="M333.49,545.49c-15.82,2.77-37.21,3.7-41.85,1.85c-3.54-1.41-6.01-8.16-7.01-11.3l-0.46,0.1
			c0,0,2.79,11.08,7.44,12.91c4.65,1.84,26.03,0.92,41.85-1.85c4.57-0.79,5.87-2.67,5.38-5.06
			C338.48,543.7,336.85,544.89,333.49,545.49z"/>
		<path class="st25" d="M31.26,559.97c0,0-13.22-44.57,2.48-77.37c6.68-13.72,8.69-29.21,5.74-44.16
			c-1.46-7.09-3.56-14.03-6.3-20.73"/>
		<path class="st5" d="M42.96,396.94c0,5.46-10.01,21.3-10.01,21.3s-10.01-15.84-10.01-21.3c0.24-2.46,1.39-4.74,3.23-6.41
			c1.84-1.66,4.24-2.58,6.73-2.58c2.49,0,4.89,0.92,6.73,2.58c1.84,1.66,2.99,3.95,3.23,6.41H42.96z"/>
		<path class="st5" d="M59.43,427.2c-3,4.59-20.02,12.51-20.02,12.51s0.31-18.67,3.3-23.25c1.54-1.95,3.76-3.25,6.22-3.66
			c2.46-0.41,4.99,0.11,7.08,1.46c2.1,1.35,3.61,3.42,4.24,5.82s0.34,4.94-0.81,7.13H59.43z"/>
		<path class="st5" d="M58.71,478.9c-4.92,2.46-23.66,0.76-23.66,0.76s9.77-15.96,14.69-18.43c1.18-0.72,2.5-1.19,3.87-1.39
			c1.37-0.19,2.77-0.1,4.1,0.27c1.33,0.37,2.58,1.02,3.65,1.89c1.07,0.87,1.95,1.96,2.57,3.19c0.63,1.23,0.99,2.57,1.06,3.94
			c0.08,1.37-0.14,2.75-0.62,4.04c-0.49,1.29-1.24,2.46-2.21,3.44c-0.97,0.99-2.13,1.76-3.42,2.27H58.71z"/>
		<path class="st5" d="M49.29,517.9c-4.42,3.25-23.18,4.72-23.18,4.72s6.91-17.37,11.33-20.62c2.13-1.27,4.66-1.7,7.1-1.22
			c2.44,0.48,4.61,1.85,6.09,3.83s2.16,4.44,1.91,6.9c-0.25,2.45-1.4,4.73-3.25,6.38V517.9z"/>
		<path class="st5" d="M18.51,440.77c3.94,3.8,22.34,7.75,22.34,7.75s-4.5-18.13-8.45-21.93c-1.94-1.55-4.4-2.33-6.89-2.18
			c-2.49,0.15-4.83,1.22-6.57,2.99c-1.74,1.77-2.75,4.13-2.83,6.61C16.04,436.47,16.89,438.89,18.51,440.77z"/>
		<path class="st5" d="M8.04,486.51c4.92,2.46,23.66,0.77,23.66,0.77s-9.77-15.96-14.69-18.43c-1.18-0.72-2.5-1.2-3.87-1.39
			c-1.37-0.19-2.77-0.1-4.1,0.27c-1.33,0.37-2.58,1.02-3.65,1.89c-1.07,0.87-1.95,1.96-2.57,3.19s-0.99,2.57-1.06,3.94
			c-0.08,1.37,0.14,2.75,0.62,4.04c0.49,1.29,1.24,2.46,2.21,3.45c0.97,0.98,2.13,1.76,3.42,2.27H8.04z"/>
		<path class="st5" d="M4.04,532.35c4.42,3.25,23.18,4.72,23.18,4.72s-6.91-17.37-11.33-20.62c-2.13-1.27-4.66-1.7-7.1-1.22
			c-2.44,0.48-4.61,1.85-6.09,3.83c-1.48,1.98-2.16,4.44-1.91,6.9c0.25,2.45,1.4,4.73,3.25,6.38V532.35z"/>
		<path class="st23" d="M2.49,555.61c0,0,24.18-4.8,30.62-11.19c6.45-6.4,35.46-17.59,38.68-9.6c3.22,8,43.52,35.18,16.12,39.98
			c-27.4,4.8-64.47,6.4-72.52,3.2C7.35,574.8,2.49,555.61,2.49,555.61z"/>
		<path class="st24" d="M87.9,571.83c-27.4,4.8-64.47,6.4-72.52,3.2c-6.14-2.43-10.4-14.13-12.08-19.59l-0.81,0.17
			c0,0,4.84,19.19,12.89,22.39c8.06,3.2,45.13,1.6,72.52-3.2c7.91-1.38,10.17-4.64,9.32-8.75C96.54,568.73,93.79,570.8,87.9,571.83z
			"/>
	</g>
</g>
</svg>
