<?xml version="1.0" encoding="utf-8"?>
<!-- Generator: Adobe Illustrator 23.0.2, SVG Export Plug-In . SVG Version: 6.00 Build 0)  -->
<svg version="1.1" id="Layer_1" xmlns="http://www.w3.org/2000/svg" xmlns:xlink="http://www.w3.org/1999/xlink" x="0px" y="0px"
	 viewBox="0 0 1920 324.7" style="enable-background:new 0 0 1920 324.7;" xml:space="preserve">
<style type="text/css">
	.st0{fill:#F48F51;}
	.st1{fill:#3F3D56;}
	.st2{fill:#FFFFFF;}
	.st3{fill:#E6E8EC;}
	.st4{fill:url(#SVGID_1_);}
	.st5{fill:#FEB9B9;}
	.st6{fill:#2F2E41;}
	.st7{opacity:0.1;enable-background:new    ;}
	.st8{fill:#EFEFEF;}
	.st9{fill:#E87129;}
	.st10{fill:#434242;}
	.st11{fill:#575454;}
	.st12{fill:#ED6613;}
</style>
<path class="st0" d="M623.2,106.9c-109.8,0-246.8-53.2-362.2-53.2c-75.7,0-135.3,52.5-161.9,66C57.3,141,23.5,146.1,0,148.2v178.2
	h2012.7c21.5-90.5,112.3-283.9,60.6-283.9c-60.6,0-129.9,61-291.4,26.5s-420.5-42.1-471-42.1C1197.9,26.9,965.1,69,965.1,69
	S819,106.9,623.2,106.9z"/>
<path class="st1" d="M501.9,68.1h-2.2c-0.4,0-0.8,0.4-0.8,0.8v29.8c0,0.4,0.4,0.8,0.8,0.8h2.2c0.4,0,0.8-0.4,0.8-0.8V68.9
	C502.7,68.5,502.3,68.1,501.9,68.1z"/>
<path class="st1" d="M487.5,9.4H387.3c-7.4,0-13.5,6-13.5,13.5v231.8c0,7.5,6,13.5,13.5,13.5h100.2c7.4,0,13.5-6,13.5-13.5V22.9
	C500.9,15.5,494.9,9.4,487.5,9.4z"/>
<path class="st2" d="M483.2,16.1h-14.6v1.8c0,1.1-0.2,2.2-0.6,3.2c-0.4,1-1,1.9-1.8,2.7s-1.7,1.4-2.7,1.8c-1,0.4-2.1,0.6-3.2,0.6
	H414c-1.1,0-2.2-0.2-3.2-0.6c-1-0.4-1.9-1-2.7-1.8c-0.8-0.8-1.4-1.7-1.8-2.7c-0.4-1-0.6-2.1-0.6-3.2v-1.8H392c-2.7,0-5.2,1.1-7.1,3
	c-1.9,1.9-3,4.5-3,7.2v225.1c0,2.7,1.1,5.3,3,7.2c1.9,1.9,4.5,3,7.1,3h91.3c2.7,0,5.2-1.1,7.1-3c1.9-1.9,3-4.5,3-7.2V26.3
	c0-1.3-0.3-2.6-0.8-3.9c-0.5-1.2-1.3-2.3-2.2-3.3c-0.9-0.9-2.1-1.7-3.3-2.2C485.9,16.4,484.6,16.1,483.2,16.1L483.2,16.1z"/>
<path class="st3" d="M441.5,17.1h-15.1c-0.7,0-1.3,0.6-1.3,1.3v0.9c0,0.7,0.6,1.3,1.3,1.3h15.1c0.7,0,1.3-0.6,1.3-1.3v-0.9
	C442.9,17.7,442.3,17.1,441.5,17.1z"/>
<path class="st3" d="M447.6,21c1.1,0,2-0.9,2-2c0-1.1-0.9-2-2-2c-1.1,0-2,0.9-2,2C445.5,20.1,446.5,21,447.6,21z"/>
<path class="st2" d="M438.1,166.1c13.3,0,24.1-10.8,24.1-24.1s-10.8-24.1-24.1-24.1c-13.3,0-24,10.8-24,24.1
	S424.9,166.1,438.1,166.1z"/>
<path class="st0" d="M469.8,138.6c0,6.4-1.9,12.6-5.4,17.9c-3.5,5.3-8.6,9.4-14.4,11.9c-5.9,2.4-12.3,3.1-18.6,1.8
	c-6.2-1.2-12-4.3-16.5-8.8c-4.5-4.5-7.6-10.2-8.8-16.5c-1.2-6.2-0.6-12.7,1.8-18.6c2.4-5.9,6.6-10.9,11.8-14.4
	c5.3-3.5,11.5-5.4,17.9-5.4c4.2,0,8.4,0.8,12.3,2.5c3.9,1.6,7.4,4,10.4,7c3,3,5.4,6.5,7,10.4C468.9,130.2,469.8,134.4,469.8,138.6
	L469.8,138.6z M433.9,155.7l23.8-23.9c0.2-0.2,0.3-0.4,0.4-0.7c0.1-0.3,0.2-0.5,0.2-0.8c0-0.3-0.1-0.5-0.2-0.8
	c-0.1-0.3-0.3-0.5-0.4-0.7l-2.9-2.9c-0.2-0.2-0.4-0.3-0.7-0.5c-0.3-0.1-0.5-0.2-0.8-0.2s-0.5,0.1-0.8,0.2c-0.3,0.1-0.5,0.3-0.7,0.5
	l-19.4,19.5l-9.1-9.1c-0.4-0.4-0.9-0.6-1.5-0.6c-0.6,0-1.1,0.2-1.5,0.6l-2.9,3c-0.4,0.4-0.6,0.9-0.6,1.5c0,0.6,0.2,1.1,0.6,1.5
	l13.5,13.5c0.2,0.2,0.4,0.3,0.7,0.5c0.3,0.1,0.5,0.2,0.8,0.2c0.3,0,0.5-0.1,0.8-0.2C433.5,156,433.7,155.9,433.9,155.7L433.9,155.7z
	"/>
<path class="st1" d="M377.8,60.4h-0.3c-0.4,0-0.8,0.4-0.8,0.8v7.7c0,0.4,0.4,0.8,0.8,0.8h0.3c0.4,0,0.8-0.4,0.8-0.8v-7.7
	C378.6,60.8,378.2,60.4,377.8,60.4z"/>
<path class="st1" d="M378,77.4h-0.6c-0.4,0-0.8,0.4-0.8,0.8v14.6c0,0.4,0.4,0.8,0.8,0.8h0.6c0.4,0,0.8-0.4,0.8-0.8V78.2
	C378.7,77.8,378.4,77.4,378,77.4z"/>
<path class="st1" d="M377.9,99.2h-0.5c-0.4,0-0.8,0.4-0.8,0.8v14.7c0,0.4,0.4,0.8,0.8,0.8h0.5c0.4,0,0.8-0.4,0.8-0.8V100
	C378.7,99.6,378.3,99.2,377.9,99.2z"/>
<linearGradient id="SVGID_1_" gradientUnits="userSpaceOnUse" x1="-187.6871" y1="227.8808" x2="-187.6871" y2="227.9808" gradientTransform="matrix(1 0 0 -1 539.0551 370.3061)">
	<stop  offset="0" style="stop-color:#808080;stop-opacity:0.251"/>
	<stop  offset="0.54" style="stop-color:#808080;stop-opacity:0.122"/>
	<stop  offset="1" style="stop-color:#808080;stop-opacity:0.102"/>
</linearGradient>
<path class="st4" d="M351.2,142.3c0.1,0.1,0.1,0.1,0.2,0.1c0.1,0,0.2,0,0.2,0C351.4,142.4,351.3,142.4,351.2,142.3z"/>
<path class="st5" d="M367,148.6l-0.4,2.3l-0.3,1.7l-0.6,3.2l-5.6,4c0,0-0.5-0.4-1.3-1.1c-2.3-1.9-7.2-5.8-10.7-7.9
	c-0.9-0.6-1.9-1-3-1.4L367,148.6z"/>
<path class="st1" d="M362.9,150.2c0,0,6.6,1.1,7-1.7c0.4-2.8-3.4-4.3-6.6-4.5s-22.4,1.1-22.4,1.1s-3.4,4.5,8.8,5.3L362.9,150.2z"/>
<path class="st6" d="M377.3,57.3h-34.4v40.9h34.4V57.3z"/>
<path class="st7" d="M377.3,57.5h-34.4v40.9h34.4V57.5z"/>
<path class="st5" d="M302.5,127.3c-0.6,0.1-1.3,0.7-2.1,1.5c-3.5,3.4-8.4,11.5-8.4,11.5c-6.4-7.6,0.7-13.6,3.7-15.6
	c0.7-0.5,1.2-0.8,1.2-0.8L302.5,127.3z"/>
<path class="st5" d="M366.7,70.2c0,0,1.7,11.9,7.5,14.7c5.8,2.8-7.5,8.1-7.5,8.1l-18.2-6.8c0,0,10.3-3.4,8.3-13.4L366.7,70.2z"/>
<path class="st5" d="M347.1,141.7l-0.4,2.3l-0.3,1.7l-0.6,3.2l-5.6,4c0,0-0.5-0.4-1.3-1.1c-2.3-1.9-7.2-5.8-10.8-7.9
	c-0.9-0.6-1.9-1-3-1.4L347.1,141.7z"/>
<path class="st6" d="M342.2,144.4c0,0,5.9,0,6.3-2.8c0.4-2.8-3.2-4.3-6.3-4.5c-3-0.2-21.5,1.2-21.5,1.2s-2.6,5.3,9,6.1H342.2z"/>
<path class="st1" d="M383.6,188.8c-0.3-0.1-0.5-0.3-0.8-0.4l-0.7-0.9l-9.1-11.6v0.2c-0.1,1.9-0.7,17.2-5.8,18.6
	c-5.5,1.5-12,1.9-15-8.3c-3-10.2-8.5-32.4-14.1-33.7l8.4-6.9c0,0,5.5,6.5,7.8,12.7c-0.1-0.4-3.9-18.3-0.8-21.5H381
	c0,0,4.2,12.1,7.1,18.1c2.3,4.7,5.7,15.7,7.8,23.1C398.1,185.7,390.5,192.2,383.6,188.8z"/>
<path class="st7" d="M382.9,140.5c-4.2,2.5-22.9,1.5-28.9,1.1l-1.7-0.1c-0.2,0,0-0.1,0-0.1l0.2-1.7l4.5-11.5l24.2-14
	c-0.5,1.5-0.7,3.7-0.6,6.3C380.7,128.8,382.9,140.5,382.9,140.5z"/>
<path class="st8" d="M382.9,140c-4.2,2.5-22.9,1.5-28.9,1.1l-1.7-0.1l-0.3,0l0.3-0.1l1.5-0.4l3.2-12.8l24.2-14
	c-0.5,1.5-0.7,3.7-0.6,6.3C380.7,128.2,382.9,140,382.9,140z"/>
<path class="st7" d="M380.5,119.9c-4.9,1.1-15.7,4.5-19.9,12.5c-2.8,5.4-5.1,7.7-6.7,8.6l-1.6-0.1c0,0,0-0.1,0-0.1l1.5-0.4l3.2-12.8
	l24.2-14C380.7,115.1,380.5,117.3,380.5,119.9z"/>
<path class="st7" d="M296.9,123.9l5.6,3.4c-0.6,0.1-1.3,0.7-2.1,1.5c-0.5-1.4-3.4-3.3-4.8-4.1C296.4,124.2,296.9,123.9,296.9,123.9z
	"/>
<path class="st7" d="M351.3,141.1c-0.1,0-0.1,0-0.2,0s-0.1,0-0.2-0.1C351,141.1,351.1,141.1,351.3,141.1L351.3,141.1z"/>
<path class="st9" d="M364,84.2c0,0-5.1,0.6-8.7-3.2c0,0-15,4.3-20.1,14.1c-5.1,9.8-39.7,29-39.7,29s6,3.4,5.5,5.1l22.8-13.2
	c0,0,8.1-5.8,10.3-7.2c2.2-1.3,14.7-9.4,17.3,12.6c2.6,22,0,19.4,0,19.4s3.8,1.3,9.2-9.2c5.5-10.6,22.4-13,22.4-13l0.9-11.1
	c0,0,3.4-7.4,0.8-10.4c-0.8-0.9-1.3-2-1.5-3.2c-0.4-2.8,0-7.5,6-11.4c9.2-6,12.8-10.9,12.8-10.9s0.2-3.6-5.5-5.3
	c-5.6-1.7-28.6-10.9-28.6-10.9l-0.8,3.2l18.1,12.8c0,0-9,7.3-16.2,7.2C369.1,78.5,370.4,84,364,84.2z"/>
<path class="st7" d="M367.5,75.4c-0.4-1.5-0.8-3-1-4.6l-10,2.6c0.4,1.9,0.4,3.9-0.2,5.8c2,0.5,4.2,0.5,6.2-0.2
	C364.5,78.3,366.2,77.1,367.5,75.4L367.5,75.4z"/>
<path class="st5" d="M359.2,79c5.9,0,10.7-4.8,10.7-10.7c0-5.9-4.8-10.7-10.7-10.7c-5.9,0-10.7,4.8-10.7,10.7
	C348.5,74.2,353.3,79,359.2,79z"/>
<path class="st7" d="M370.9,154.8c0,0,6.2,12.2,4.3,16L370.9,154.8z"/>
<path class="st6" d="M364.9,43.5c3,0.3,5.8,1.6,8.7,2.3c0.7,0.2,1.5,0.3,2.3,0.1c1.1-0.4,2.1-1.5,3.2-1.5c0.7,0,1.4,0.5,2,1
	c1,0.7,1.9,1.5,2.7,2.4c2,2.2,3.3,5.2,5.1,7.5c1.8,2.4,4.5,5.2,7.1,4.1c-1.8,7-7.3,11.3-13.6,11.7c-2.5,0.2-5.1-0.4-7.5,0.4
	c-0.6,0.2-1.2,0.4-1.9,0.5c-1.4,0-2.5-1.3-3.4-2.5c-2.1-3-3.7-6.3-6-9c-0.8-0.9-1.7-1.7-2.7-1.9c-1.1-0.2-2.1,0.4-3,0.9
	c-1.6,0.8-3.2,1.7-4.4,3.1c-1.2,1.4-2,3.5-1.5,5.4c0.3,1,0.9,2,0.9,3c0,1.7-1.5,3-1.8,4.6c-0.1,0.7-0.1,1.4-0.1,2.1
	c-0.1,2.3-1.6,4.2-3.2,5.6c-0.6,0.6-1.3,1.2-1.5,2c-0.1,0.6,0,1.2-0.1,1.8c-0.2,1.5-1.7,2.2-3,2.4c-1.5,0.2-3.1,0-4.5-0.5
	c1.8-0.9,3-3.3,2.5-5.5c-0.6-3.1-3.7-5.3-3.4-8.4c0.1-1,0.4-1.9,0.8-2.8c0.7-1.7,1.2-3.4,1.5-5.2c0.2-1.4,0.3-2.8-0.1-4.2
	c-0.4-1.2-1.2-2.2-1.9-3.2c-0.9-1.4-1.7-2.9-2.2-4.5c-0.2-0.5-0.3-1-0.2-1.5c0.2-0.6,0.5-1.1,0.9-1.5c1.7-1.8,3.5-3.6,5.7-4.1
	c1.1-0.2,2.2-0.2,3.2-0.1c1.9,0.1,3.8,0,5.6-0.2c1.5-0.2,4.1-0.2,5.5-1.2c1.2-0.9,1.9-2.1,3.4-2.7C361.7,43.4,363.3,43.3,364.9,43.5
	L364.9,43.5z"/>
<path class="st0" d="M564.2,267.5c8.6,0,15.6-1.2,15.6-2.6c0-1.5-7-2.6-15.6-2.6c-8.6,0-15.6,1.2-15.6,2.6
	C548.6,266.4,555.6,267.5,564.2,267.5z"/>
<path class="st0" d="M570.6,260.6c0.7-0.6,1.2-1.4,1.5-2.2c0.2-0.9-0.2-1.9-1-2.3c-1-0.4-2,0.3-2.7,1c-0.8,0.7-1.7,1.4-2.7,1.3
	c0.5-0.5,0.9-1.1,1.1-1.7c0.2-0.7,0.3-1.4,0.1-2.1c0-0.3-0.2-0.6-0.4-0.8c-0.5-0.6-1.5-0.3-2.1,0.1c-2,1.4-2.6,4.2-2.6,6.6
	c-0.2-0.9,0-1.8,0-2.7c0-0.9-0.3-1.9-1-2.4c-0.5-0.3-1-0.4-1.5-0.4c-0.9,0-1.9,0.1-2.5,0.7c-0.8,0.8-0.6,2.2,0.1,3.1
	c0.7,0.9,1.7,1.5,2.6,2.1c0.7,0.4,1.4,1.1,1.9,1.8c0.1,0.1,0.1,0.2,0.1,0.3h5.7C568.4,262.4,569.5,261.6,570.6,260.6L570.6,260.6z"
	/>
<path class="st8" d="M352.7,268.7c5.7,0,10.3-0.8,10.3-1.7c0-1-4.6-1.7-10.3-1.7s-10.3,0.8-10.3,1.7
	C342.4,267.9,347,268.7,352.7,268.7z"/>
<path class="st10" d="M356.9,264.1c0.5-0.4,0.8-0.9,1-1.5c0.1-0.3,0-0.6-0.1-0.9c-0.1-0.3-0.3-0.5-0.6-0.6c-0.6-0.2-1.3,0.2-1.8,0.6
	c-0.5,0.4-1.1,0.9-1.8,0.8c0.3-0.3,0.6-0.7,0.7-1.1c0.1-0.4,0.2-0.9,0.1-1.4c0-0.2-0.1-0.4-0.2-0.5c-0.3-0.4-1-0.2-1.4,0.1
	c-1.3,0.9-1.7,2.7-1.7,4.4c-0.1-0.6,0-1.2,0-1.8c0-0.6-0.2-1.3-0.7-1.6c-0.3-0.2-0.7-0.3-1-0.2c-0.6,0-1.3,0-1.7,0.5
	c-0.5,0.5-0.4,1.5,0.1,2c0.4,0.6,1.1,1,1.7,1.4c0.5,0.3,0.9,0.7,1.2,1.2c0,0.1,0.1,0.1,0.1,0.2h3.7
	C355.5,265.3,356.3,264.8,356.9,264.1L356.9,264.1z"/>
<path class="st8" d="M294.7,268.7c5.7,0,10.3-0.8,10.3-1.7c0-1-4.6-1.7-10.3-1.7s-10.3,0.8-10.3,1.7
	C284.4,267.9,289,268.7,294.7,268.7z"/>
<path class="st11" d="M298.9,264.1c0.5-0.4,0.8-0.9,1-1.5c0.1-0.3,0-0.6-0.1-0.9c-0.1-0.3-0.3-0.5-0.6-0.6c-0.6-0.2-1.3,0.2-1.8,0.6
	c-0.5,0.4-1.1,0.9-1.8,0.8c0.3-0.3,0.6-0.7,0.7-1.1c0.1-0.4,0.2-0.9,0.1-1.4c0-0.2-0.1-0.4-0.2-0.5c-0.3-0.4-1-0.2-1.4,0.1
	c-1.3,0.9-1.7,2.7-1.7,4.4c-0.1-0.6,0-1.2,0-1.8c0-0.6-0.2-1.3-0.7-1.6c-0.3-0.2-0.7-0.3-1-0.2c-0.6,0-1.3,0-1.7,0.5
	c-0.5,0.5-0.4,1.5,0.1,2c0.4,0.6,1.1,1,1.7,1.4c0.5,0.3,0.9,0.7,1.2,1.2c0,0.1,0.1,0.1,0.1,0.2h3.7
	C297.4,265.3,298.2,264.8,298.9,264.1L298.9,264.1z"/>
<path class="st6" d="M591,267.7H279v0.6h312V267.7z"/>
<path class="st12" d="M575.8,26.9c0,0-32.6-2-28.7,20.9c0,0-0.8,4,2.9,5.9c0,0,0.1-1.7,3.3-1.1c1.2,0.2,2.4,0.3,3.5,0.2
	c1.6-0.1,3.1-0.7,4.3-1.8l0,0c0,0,9.2-3.8,12.7-18.8c0,0,2.6-3.3,2.5-4.1l-5.5,2.4c0,0,1.9,4,0.4,7.3c0,0-0.2-7.1-1.2-7
	c-0.2,0-2.9,1.4-2.9,1.4S570.4,39,568,44c0,0,0.9-8.5-1.8-11.4l-3.9,2.3c0,0,3.8,7.1,1.2,13c0,0,0.7-8.9-2-12.4l-3.5,2.7
	c0,0,3.5,7,1.4,11.9c0,0-0.3-10.4-2.1-11.2c0,0-3.1,2.7-3.5,3.8c0,0,2.4,5.1,0.9,7.8c0,0-0.9-6.9-1.7-7c0,0-3.1,4.6-3.4,7.7
	c0,0,0.1-4.7,2.6-8.2c0,0-3,0.5-4.7,2.4c0,0,0.5-3.2,5.4-3.5c0,0,2.5-3.5,3.2-3.7c0,0-4.9-0.4-7.9,0.9c0,0,2.6-3.1,8.8-1.7l3.5-2.8
	c0,0-6.5-0.9-9.2,0.1c0,0,3.2-2.7,10.2-0.7l3.8-2.3c0,0-5.5-1.2-8.8-0.8c0,0,3.5-1.9,9.9,0.2l2.7-1.2c0,0-4.1-0.8-5.2-0.9
	c-1.2-0.1-1.2-0.5-1.2-0.5c2.6-0.4,5.2-0.1,7.6,0.8C570.1,29.4,575.9,27.3,575.8,26.9z"/>
<path class="st1" d="M531.1,14.8c0,0-14.7-0.9-13,9.4c0,0-0.3,1.8,1.3,2.7c0,0,0-0.8,1.5-0.5c0.5,0.1,1.1,0.1,1.6,0.1
	c0.7,0,1.4-0.3,2-0.8l0,0c0,0,4.1-1.7,5.7-8.5c0,0,1.2-1.5,1.1-1.9l-2.5,1.1c0,0,0.8,1.8,0.2,3.3c0,0-0.1-3.2-0.6-3.1
	c-0.1,0-1.3,0.6-1.3,0.6s1.5,3.1,0.4,5.4c0,0,0.4-3.9-0.8-5.2l-1.7,1c0,0,1.7,3.2,0.5,5.9c0,0,0.3-4-0.9-5.6l-1.6,1.2
	c0,0,1.6,3.2,0.6,5.4c0,0-0.1-4.7-1-5.1c0,0-1.4,1.2-1.6,1.7c0,0,1.1,2.3,0.4,3.5c0,0-0.4-3.1-0.8-3.2c0,0-1.4,2.1-1.5,3.5
	c0.1-1.3,0.5-2.6,1.2-3.7c-0.8,0.2-1.5,0.5-2.1,1.1c0,0,0.2-1.5,2.5-1.6c0,0,1.2-1.6,1.4-1.7c0,0-2.2-0.2-3.6,0.4c0,0,1.2-1.4,4-0.8
	l1.5-1.3c0,0-2.9-0.4-4.2,0c0,0,1.4-1.2,4.6-0.3l1.7-1c0,0-2.5-0.5-4-0.3c0,0,1.6-0.8,4.5,0.1l1.2-0.5c0,0-1.8-0.4-2.4-0.4
	c-0.5-0.1-0.6-0.2-0.6-0.2c1.2-0.2,2.4-0.1,3.4,0.4C528.6,15.9,531.2,15,531.1,14.8z"/>
<path class="st1" d="M304.5,172.5c0,0-14.7-0.9-13,9.4c0,0-0.3,1.8,1.3,2.7c0,0,0-0.8,1.5-0.5c0.5,0.1,1.1,0.1,1.6,0.1
	c0.7,0,1.4-0.3,2-0.8l0,0c0,0,4.1-1.7,5.7-8.5c0,0,1.2-1.5,1.1-1.9l-2.5,1.1c0,0,0.8,1.8,0.2,3.3c0,0-0.1-3.2-0.6-3.1
	c-0.1,0-1.3,0.6-1.3,0.6s1.5,3.1,0.4,5.4c0,0,0.4-3.9-0.8-5.2l-1.7,1c0,0,1.7,3.2,0.5,5.9c0,0,0.3-4-0.9-5.6l-1.6,1.2
	c0,0,1.6,3.2,0.6,5.4c0,0-0.1-4.7-1-5.1c0,0-1.4,1.2-1.6,1.7c0,0,1.1,2.3,0.4,3.5c0,0-0.4-3.1-0.8-3.2c0,0-1.4,2.1-1.5,3.5
	c0.1-1.3,0.5-2.6,1.2-3.7c-0.8,0.2-1.5,0.5-2.1,1.1c0,0,0.2-1.5,2.5-1.6c0,0,1.2-1.6,1.4-1.7c0,0-2.2-0.2-3.6,0.4c0,0,1.2-1.4,4-0.8
	l1.5-1.3c0,0-2.9-0.4-4.2,0c0,0,1.4-1.2,4.6-0.3l1.7-1c0,0-2.5-0.5-4-0.3c0,0,1.6-0.8,4.5,0.1l1.2-0.5c0,0-1.8-0.4-2.4-0.4
	c-0.5-0.1-0.6-0.2-0.6-0.2c1.2-0.2,2.4-0.1,3.4,0.4C301.9,173.6,304.5,172.6,304.5,172.5z"/>
</svg>
